<svg aria-hidden="true" width="0" height="0" style="position:absolute"><symbol viewBox="0 0 20 20" id="030794220a577069b4c9e37f7881512d" xmlns="http://www.w3.org/2000/svg"><path d="M8.294 16.998c-.435 0-.847-.203-1.111-.553L3.61 11.724a1.392 1.392 0 01.27-1.951 1.392 1.392 0 011.953.27l2.351 3.104 5.911-9.492c.407-.652 1.267-.852 1.921-.445s.854 1.266.446 1.92L9.478 16.34a1.39 1.39 0 01-1.12.656c-.022.002-.042.002-.064.002z"/></symbol><symbol viewBox="0 0 20 20" id="06146f99ecc58ac979ac7b502d6cd836" xmlns="http://www.w3.org/2000/svg"><path d="M16 10c0 .553-.048 1-.601 1H4.601C4.049 11 4 10.553 4 10s.049-1 .601-1H15.4c.552 0 .6.447.6 1z"/></symbol><symbol viewBox="0 0 20 20" id="0e19f3def72e51aa319d70b8512e31bc" xmlns="http://www.w3.org/2000/svg"><path d="M17.561 2.439c-1.442-1.443-2.525-1.227-2.525-1.227L2.21 14.037 1.2 18.799l4.763-1.01L18.789 4.966c-.001 0 .216-1.083-1.228-2.527zM5.68 17.217l-1.624.35c-.156-.293-.345-.586-.69-.932s-.639-.533-.932-.691l.35-1.623.47-.469s.883.018 1.881 1.016c.997.996 1.016 1.881 1.016 1.881l-.471.468z"/></symbol><symbol viewBox="0 0 20 20" id="5879339dda63c178b7ce0ee777d422bd" xmlns="http://www.w3.org/2000/svg"><path d="M16 10c0 .553-.048 1-.601 1H11v4.399c0 .552-.447.601-1 .601s-1-.049-1-.601V11H4.601C4.049 11 4 10.553 4 10s.049-1 .601-1H9V4.601C9 4.048 9.447 4 10 4s1 .048 1 .601V9h4.399c.553 0 .601.447.601 1z"/></symbol><symbol viewBox="0 0 20 20" id="90f76b9fdc792fc4a53d17223bebcfe6" xmlns="http://www.w3.org/2000/svg"><path d="M3.389 7.113L4.49 18.021c.061.461 2.287 1.977 5.51 1.979 3.225-.002 5.451-1.518 5.511-1.979l1.102-10.908C14.929 8.055 12.412 8.5 10 8.5c-2.41 0-4.928-.445-6.611-1.387zm9.779-5.603l-.859-.951C11.977.086 11.617 0 10.916 0H9.085c-.7 0-1.061.086-1.392.559l-.859.951C4.264 1.959 2.4 3.15 2.4 4.029v.17C2.4 5.746 5.803 7 10 7c4.198 0 7.601-1.254 7.601-2.801v-.17c0-.879-1.863-2.07-4.433-2.519zM12.07 4.34L11 3H9L7.932 4.34h-1.7s1.862-2.221 2.111-2.522c.19-.23.384-.318.636-.318h2.043c.253 0 .447.088.637.318.248.301 2.111 2.522 2.111 2.522h-1.7z"/></symbol><symbol viewBox="0 0 20 20" id="95917fb7c3750e6d156bfd5bdffe39d2" xmlns="http://www.w3.org/2000/svg"><path d="M19.398 7.415l-7.444-1.996L10.651.558c-.109-.406-.545-.642-.973-.529L.602 2.461c-.428.114-.686.538-.577.944l3.23 12.051c.109.406.544.643.971.527l3.613-.967-.492 1.838c-.109.406.149.83.577.943l8.11 2.174c.428.115.862-.121.972-.529l2.97-11.084c.108-.406-.15-.83-.578-.943zM1.633 3.631l7.83-2.096 2.898 10.818-7.83 2.096L1.633 3.631zm14.045 14.832L8.864 16.6l.536-2.002 3.901-1.047c.428-.113.688-.537.578-.943l-1.508-5.627 5.947 1.631-2.64 9.851z"/></symbol><symbol viewBox="0 0 20 20" id="fcba2f951158d7741a6b4f3c6594ec67" xmlns="http://www.w3.org/2000/svg"><path d="M10 1.6a8.4 8.4 0 100 16.8 8.4 8.4 0 000-16.8zm4.789 11.461L13.06 14.79 10 11.729l-3.061 3.06L5.21 13.06 8.272 10 5.211 6.939 6.94 5.211 10 8.271l3.061-3.061 1.729 1.729L11.728 10l3.061 3.061z"/></symbol></svg>